<?xml version="1.0" encoding="UTF-8"?>
<svg id="Dark" xmlns="http://www.w3.org/2000/svg" xmlns:xlink="http://www.w3.org/1999/xlink" viewBox="0 0 765.5 199.25">
  <defs>
    <radialGradient id="radial-gradient" cx="80.79" cy="99.29" fx="80.79" fy="99.29" r="148.76" gradientTransform="translate(23.31 5.84) scale(.94)" gradientUnits="userSpaceOnUse">
      <stop offset="0" stop-color="#a9b2c8"/>
      <stop offset=".5" stop-color="#d8dbe0"/>
      <stop offset="1" stop-color="#e8e9ea"/>
    </radialGradient>
  </defs>
  <g>
    <path d="M246.02,137.43v-69.93h15.12l29.48,44.51v-44.51h15.12v69.93h-15.12l-29.48-44.41v44.41h-15.12Z" fill="#e0e5eb"/>
    <path d="M374.17,138.57c-20.22,0-34.11-14.74-34.11-36.1s13.99-36.19,34.21-36.19,34.3,14.74,34.3,36.1-14.08,36.19-34.4,36.19ZM374.36,81.02c-11.34,0-18.14,8.03-18.14,21.36s6.8,21.45,18.14,21.45,18.05-8.22,18.05-21.45-6.8-21.36-18.05-21.36Z" fill="#e0e5eb"/>
    <path d="M439,102.56c0-21.83,13.89-36.19,34.77-36.19,17.48,0,30.05,10.02,32.22,25.7h-16.16c-2.08-6.99-8.03-10.96-16.44-10.96-11.34,0-18.24,8.03-18.24,21.36s6.99,21.36,18.24,21.36c8.6,0,14.93-4.25,16.82-11.15h15.88c-2.46,15.59-15.5,25.89-32.98,25.89-20.98,0-34.11-13.89-34.11-36Z" fill="#e0e5eb"/>
    <path d="M530.76,67.5h55v14.17h-19.84v55.75h-15.31v-55.75h-19.84v-14.17Z" fill="#e0e5eb"/>
    <path d="M618.56,137.43v-69.93h27.03c17.01,0,26.65,8.22,26.65,22.68,0,9.07-3.88,15.5-11.62,19.47l12.28,27.78h-16.73l-10.49-24.47h-11.81v24.47h-15.31ZM633.86,99.54h11.62c6.71,0,10.58-3.4,10.58-9.36s-3.69-9.07-10.49-9.07h-11.72v18.43Z" fill="#e0e5eb"/>
    <path d="M700.77,137.43l24.95-69.93h14.93l24.85,69.93h-16.25l-4.91-14.74h-22.58l-5.01,14.74h-15.97ZM726.19,109.84h13.8l-5.01-14.93c-.76-2.36-1.61-5.1-1.89-6.8-.28,1.61-1.04,4.25-1.89,6.8l-5.01,14.93Z" fill="#e0e5eb"/>
  </g>
  <path d="M180.69,0H18.56C8.31,0,0,8.31,0,18.56v162.12c0,10.25,8.31,18.56,18.56,18.56h162.12c10.25,0,18.56-8.31,18.56-18.56V18.56c0-10.25-8.31-18.56-18.56-18.56ZM55.62,126.04c-20.75-32.08-11.57-74.9,20.51-95.66l75.15,116.16c-32.08,20.75-74.9,11.57-95.66-20.51Z" fill="url(#radial-gradient)"/>
</svg>